<svg xmlns="http://www.w3.org/2000/svg" version="1.1" xmlns:xlink="http://www.w3.org/1999/xlink" xmlns:svgjs="http://svgjs.com/svgjs" width="1440" height="560" preserveAspectRatio="none" viewBox="0 0 1440 560"><g mask="url(&quot;#SvgjsMask1026&quot;)" fill="none"><rect width="1440" height="560" x="0" y="0" fill="rgba(4, 15, 66, 1)"></rect><path d="M1149.92500663793 0.5844930561948711L1157.775226668658 150.3756144912567 1307.5663481037197 142.52539446052867 1299.7161280729918-7.265726974533152z" fill="rgba(95, 14, 215, 0.4)" class="triangle-float1"></path><path d="M328.2154961500536-15.334402995752896L242.75998890008992-60.77190218797442 197.3224897078684 24.683605061989226 282.77799695783204 70.12110425421075z" fill="rgba(95, 14, 215, 0.4)" class="triangle-float3"></path><path d="M162.66780777168307 361.5025727847425L68.22842608210559 321.4154335991104 55.31740814844619 483.11807572629266z" fill="rgba(95, 14, 215, 0.4)" class="triangle-float2"></path><path d="M167.47695588356547 383.0784425778385L225.25444907534202 468.7370988424769 310.91310533998046 410.9596056507003 253.13561214820388 325.3009493860619z" fill="rgba(95, 14, 215, 0.4)" class="triangle-float2"></path><path d="M768.8839853371658 70.33767172851404L601.1176181252685 61.54540898455532 592.3253553813097 229.3117761964526 760.091722593207 238.10403894041133z" fill="rgba(95, 14, 215, 0.4)" class="triangle-float3"></path><path d="M1342.8888683548414 33.76805937886085L1308.3141875552155 196.42914369438762 1470.9752718707423 231.00382449401354 1505.5499526703682 68.34274017848678z" fill="rgba(95, 14, 215, 0.4)" class="triangle-float2"></path><path d="M536.2056427077981 484.95140135625513L693.2352607619368 493.1809749201367 701.4648343258184 336.15135686599797 544.4352162716797 327.9217833021164z" fill="rgba(95, 14, 215, 0.4)" class="triangle-float2"></path><path d="M1220.492850751687 356.6061432940161L1105.6208173879454 420.28075114632253 1169.295425240252 535.1527845100642 1284.1674586039935 471.4781766577577z" fill="rgba(95, 14, 215, 0.4)" class="triangle-float2"></path><path d="M1526.6558718934953 386.4113545381829L1440.6065236720249 297.3046459729296 1351.4998151067716 383.3539941944 1437.549163328242 472.46070275965326z" fill="rgba(95, 14, 215, 0.4)" class="triangle-float2"></path><path d="M1498.5708914421919 438.84231131130275L1404.4814999178006 337.94379189528405 1303.582980501782 432.03318341967525 1397.6723720261732 532.931702835694z" fill="rgba(95, 14, 215, 0.4)" class="triangle-float2"></path><path d="M445.41664348200965 448.0060916262105L520.3873904946829 348.5165500300285 420.89784889850097 273.5458030173552 345.92710188582765 373.0353446135372z" fill="rgba(95, 14, 215, 0.4)" class="triangle-float1"></path><path d="M230.77093029108548-28.018528834515763L210.09007978420823 89.26840265936885 327.3770112780928 109.94925316624608 348.0578617849701-7.337678327638518z" fill="rgba(95, 14, 215, 0.4)" class="triangle-float1"></path><path d="M752.1796053987462-4.871833263388382L663.8795474033316 112.07424759834599 790.7298790976159 129.90189909693592z" fill="rgba(95, 14, 215, 0.4)" class="triangle-float3"></path><path d="M445.63780493641275 164.85100015770263L391.8620264976996 59.31009245216691 286.32111879216393 113.08587089088005 340.09689723087706 218.62677859641576z" fill="rgba(95, 14, 215, 0.4)" class="triangle-float1"></path><path d="M645.9191369515629 494.6215187911353L526.3046919971964 390.64226814105535 422.32544134711645 510.2567130954219 541.9398863014829 614.2359637455019z" fill="rgba(95, 14, 215, 0.4)" class="triangle-float2"></path><path d="M733.9065493075988 454.4133321806537L832.5697591299518 426.1221120199409 705.615329146886 355.75012235830064z" fill="rgba(95, 14, 215, 0.4)" class="triangle-float3"></path><path d="M377.6035805211594 359.6171985221385L491.272038320291 412.62167088454186 544.2765106826944 298.95321308541025 430.6080528835628 245.94874072300692z" fill="rgba(95, 14, 215, 0.4)" class="triangle-float1"></path></g><defs><mask id="SvgjsMask1026"><rect width="1440" height="560" fill="#ffffff"></rect></mask><style>
            @keyframes float1 {
                0%{transform: translate(0, 0)}
                50%{transform: translate(-10px, 0)}
                100%{transform: translate(0, 0)}
            }

            .triangle-float1 {
                animation: float1 5s infinite;
            }

            @keyframes float2 {
                0%{transform: translate(0, 0)}
                50%{transform: translate(-5px, -5px)}
                100%{transform: translate(0, 0)}
            }

            .triangle-float2 {
                animation: float2 4s infinite;
            }

            @keyframes float3 {
                0%{transform: translate(0, 0)}
                50%{transform: translate(0, -10px)}
                100%{transform: translate(0, 0)}
            }

            .triangle-float3 {
                animation: float3 6s infinite;
            }
        </style></defs></svg>