<svg xmlns="http://www.w3.org/2000/svg" version="1.1" xmlns:xlink="http://www.w3.org/1999/xlink" xmlns:svgjs="http://svgjs.com/svgjs" width="1365" height="549" preserveAspectRatio="none" viewBox="0 0 1365 549"><g mask="url(&quot;#SvgjsMask1096&quot;)" fill="none"><rect width="1365" height="549" x="0" y="0" fill="url(#SvgjsLinearGradient1097)"></rect><path d="M29.31 369.16 a173.06 173.06 0 1 0 346.12 0 a173.06 173.06 0 1 0 -346.12 0z" fill="rgba(233, 225, 238, 0.19)" class="triangle-float2"></path><path d="M240.9 483.51 a127.43 127.43 0 1 0 254.86 0 a127.43 127.43 0 1 0 -254.86 0z" fill="rgba(233, 225, 238, 0.19)" class="triangle-float1"></path><path d="M438.03 540.79 a116.45 116.45 0 1 0 232.9 0 a116.45 116.45 0 1 0 -232.9 0z" fill="rgba(233, 225, 238, 0.19)" class="triangle-float2"></path><path d="M437.03 451.52 a122.4 122.4 0 1 0 244.8 0 a122.4 122.4 0 1 0 -244.8 0z" fill="rgba(233, 225, 238, 0.19)" class="triangle-float2"></path><path d="M790.53 271.97 a110.42 110.42 0 1 0 220.84 0 a110.42 110.42 0 1 0 -220.84 0z" fill="rgba(233, 225, 238, 0.19)" class="triangle-float3"></path><path d="M1196 465.04 a117.96 117.96 0 1 0 235.92 0 a117.96 117.96 0 1 0 -235.92 0z" fill="rgba(233, 225, 238, 0.19)" class="triangle-float1"></path><path d="M1148.21 89.97 a101.53 101.53 0 1 0 203.06 0 a101.53 101.53 0 1 0 -203.06 0z" fill="rgba(233, 225, 238, 0.19)" class="triangle-float3"></path><path d="M1146.06 457.91 a92.01 92.01 0 1 0 184.02 0 a92.01 92.01 0 1 0 -184.02 0z" fill="rgba(233, 225, 238, 0.19)" class="triangle-float1"></path><path d="M211.45 234.57 a153.8 153.8 0 1 0 307.6 0 a153.8 153.8 0 1 0 -307.6 0z" fill="rgba(233, 225, 238, 0.19)" class="triangle-float3"></path></g><defs><mask id="SvgjsMask1096"><rect width="1365" height="549" fill="#ffffff"></rect></mask><linearGradient x1="0%" y1="50%" x2="100%" y2="50%" gradientUnits="userSpaceOnUse" id="SvgjsLinearGradient1097"><stop stop-color="rgba(247, 237, 251, 1)" offset="0"></stop><stop stop-color="rgba(151, 46, 196, 1)" offset="0.99"></stop></linearGradient><style>
            @keyframes float1 {
                0%{transform: translate(0, 0)}
                50%{transform: translate(-10px, 0)}
                100%{transform: translate(0, 0)}
            }

            .triangle-float1 {
                animation: float1 5s infinite;
            }

            @keyframes float2 {
                0%{transform: translate(0, 0)}
                50%{transform: translate(-5px, -5px)}
                100%{transform: translate(0, 0)}
            }

            .triangle-float2 {
                animation: float2 4s infinite;
            }

            @keyframes float3 {
                0%{transform: translate(0, 0)}
                50%{transform: translate(0, -10px)}
                100%{transform: translate(0, 0)}
            }

            .triangle-float3 {
                animation: float3 6s infinite;
            }
        </style></defs></svg>