<?xml version="1.0" encoding="utf-8"?><svg xmlns="http://www.w3.org/2000/svg" xmlns:xlink="http://www.w3.org/1999/xlink" width="1536" height="714" preserveAspectRatio="xMidYMid" viewBox="0 0 1536 714" style="z-index:1;margin-right:-1.6px;display:block;background-repeat-y:initial;background-repeat-x:initial;background-color:rgb(9, 18, 90);animation-play-state:paused" ><g transform="translate(768,357) scale(1,1) translate(-768,-357)" style="transform:matrix(1, 0, 0, 1, 0, 0);animation-play-state:paused" ><defs style="animation-play-state:paused" ><linearGradient id="ldbk-photon-r0z3aq56omb-lg" x1="0" x2="762.28" y1="0" y2="0" gradientUnits="userSpaceOnUse" style="animation-play-state:paused" ><stop stop-color="#1d3f72" offset="0" style="animation-play-state:paused" ></stop>

    
<stop stop-color="#34d0ff" offset="1" style="animation-play-state:paused" ></stop></linearGradient>

  
<mask id="ldbk-photon-r0z3aq56omb-mask" style="animation-play-state:paused" ><g style="animation-play-state:paused" ><path d="M-300 -0.5 L773.6620726899583 -0.5 A15 15 0 0 1 773.6620726899583 30.5 L-300 30.5" fill="#fff" transform="matrix(1,0,0,1,0,0)" style="transform:matrix(1, 0, 0, 1, 0, 0);animation-play-state:paused" ></path>
<path d="M705.7006605254717 -0.5 L743.6620726899583 -0.5 A15 15 0 0 1 743.6620726899583 30.5 L705.7006605254717 30.5 A15 15 0 0 1 705.7006605254717 -0.5" fill="#fff" transform="matrix(1,0,0,1,0,0)" opacity="1" style="transform:matrix(1, 0, 0, 1, 0, 0);animation-play-state:paused" ></path>
<path d="M-300 29.5 L751.7439696445384 29.5 A15 15 0 0 0 751.7439696445384 60.5 L-300 60.5" fill="#fff" transform="matrix(1,0,0,1,-25.07353973388672,0)" style="transform:matrix(1, 0, 0, 1, -25.0735, 0);animation-play-state:paused" ></path>
<path d="M-52.909273945544975 29.5 L-30 29.5 A15 15 0 0 1 -30 60.5 L-52.909273945544975 60.5 A15 15 0 0 1 -52.909273945544975 29.5" fill="#000" transform="matrix(1,0,0,1,0,0)" opacity="0.892857" style="transform:matrix(1, 0, 0, 1, 0, 0);opacity:0.892857;animation-play-state:paused" ></path>
<path d="M-300 59.5 L792.2931947594702 59.5 A15 15 0 0 1 792.2931947594702 90.5 L-300 90.5" fill="#fff" transform="matrix(1,0,0,1,22.51795196533203,0)" style="transform:matrix(1, 0, 0, 1, 22.518, 0);animation-play-state:paused" ></path>
<path d="M731.7970246521041 59.5 L762.2931947594702 59.5 A15 15 0 0 1 762.2931947594702 90.5 L731.7970246521041 90.5 A15 15 0 0 1 731.7970246521041 59.5" fill="#fff" transform="matrix(1,0,0,1,358.5048828125,0)" opacity="1" style="transform:matrix(1, 0, 0, 1, 358.505, 0);animation-play-state:paused" ></path>
<path d="M-300 89.5 L763.054911023786 89.5 A15 15 0 0 0 763.054911023786 120.5 L-300 120.5" fill="#fff" transform="matrix(1,0,0,1,-14.780622482299805,0)" style="transform:matrix(1, 0, 0, 1, -14.7806, 0);animation-play-state:paused" ></path>
<path d="M-66.36021022229382 89.5 L-30 89.5 A15 15 0 0 1 -30 120.5 L-66.36021022229382 120.5 A15 15 0 0 1 -66.36021022229382 89.5" fill="#000" transform="matrix(1,0,0,1,0,0)" opacity="1" style="transform:matrix(1, 0, 0, 1, 0, 0);animation-play-state:paused" ></path>
<path d="M-300 119.5 L795.2610107886215 119.5 A15 15 0 0 1 795.2610107886215 150.5 L-300 150.5" fill="#fff" transform="matrix(1,0,0,1,40.926239013671875,0)" style="transform:matrix(1, 0, 0, 1, 40.9262, 0);animation-play-state:paused" ></path>
<path d="M737.9364173917726 119.5 L765.2610107886215 119.5 A15 15 0 0 1 765.2610107886215 150.5 L737.9364173917726 150.5 A15 15 0 0 1 737.9364173917726 119.5" fill="#fff" transform="matrix(1,0,0,1,602.6333618164062,0)" opacity="0.714285" style="transform:matrix(1, 0, 0, 1, 602.633, 0);opacity:0.714285;animation-play-state:paused" ></path>
<path d="M-300 149.5 L763.5409871537956 149.5 A15 15 0 0 0 763.5409871537956 180.5 L-300 180.5" fill="#fff" transform="matrix(1,0,0,1,-17.807939529418945,0)" style="transform:matrix(1, 0, 0, 1, -17.8079, 0);animation-play-state:paused" ></path>
<path d="M-69.62264783246336 149.5 L-30 149.5 A15 15 0 0 1 -30 180.5 L-69.62264783246336 180.5 A15 15 0 0 1 -69.62264783246336 149.5" fill="#000" transform="matrix(1,0,0,1,0,0)" opacity="1" style="transform:matrix(1, 0, 0, 1, 0, 0);animation-play-state:paused" ></path>
<path d="M-300 179.5 L819.2654969299907 179.5 A15 15 0 0 1 819.2654969299907 210.5 L-300 210.5" fill="#fff" transform="matrix(1,0,0,1,29.169832229614258,0)" style="transform:matrix(1, 0, 0, 1, 29.1698, 0);animation-play-state:paused" ></path>
<path d="M761.4022974939314 179.5 L789.2654969299907 179.5 A15 15 0 0 1 789.2654969299907 210.5 L761.4022974939314 210.5 A15 15 0 0 1 761.4022974939314 179.5" fill="#fff" transform="matrix(1,0,0,1,745.1996459960938,0)" opacity="0.714286" style="transform:matrix(1, 0, 0, 1, 745.2, 0);opacity:0.714286;animation-play-state:paused" ></path>
<path d="M-300 209.5 L791.2633748641344 209.5 A15 15 0 0 0 791.2633748641344 240.5 L-300 240.5" fill="#fff" transform="matrix(1,0,0,1,-15.581377029418945,0)" style="transform:matrix(1, 0, 0, 1, -15.5814, 0);animation-play-state:paused" ></path>
<path d="M-42.48089301568799 209.5 L-30 209.5 A15 15 0 0 1 -30 240.5 L-42.48089301568799 240.5 A15 15 0 0 1 -42.48089301568799 209.5" fill="#000" transform="matrix(1,0,0,1,0,0)" opacity="0.357143" style="transform:matrix(1, 0, 0, 1, 0, 0);opacity:0.357143;animation-play-state:paused" ></path>
<path d="M-300 239.5 L823.9800414272279 239.5 A15 15 0 0 1 823.9800414272279 270.5 L-300 270.5" fill="#fff" transform="matrix(1,0,0,1,0,0)" style="transform:matrix(1, 0, 0, 1, 0, 0);animation-play-state:paused" ></path>
<path d="M763.7652970811112 239.5 L793.9800414272279 239.5 A15 15 0 0 1 793.9800414272279 270.5 L763.7652970811112 270.5 A15 15 0 0 1 763.7652970811112 239.5" fill="#fff" transform="matrix(1,0,0,1,0,0)" opacity="1" style="transform:matrix(1, 0, 0, 1, 0, 0);animation-play-state:paused" ></path>
<path d="M-300 269.5 L755.0433507943892 269.5 A15 15 0 0 0 755.0433507943892 300.5 L-300 300.5" fill="#fff" transform="matrix(1,0,0,1,-28.571983337402344,0)" style="transform:matrix(1, 0, 0, 1, -28.572, 0);animation-play-state:paused" ></path>
<path d="M-43.44463459115151 269.5 L-30 269.5 A15 15 0 0 1 -30 300.5 L-43.44463459115151 300.5 A15 15 0 0 1 -43.44463459115151 269.5" fill="#000" transform="matrix(1,0,0,1,0,0)" opacity="1" style="transform:matrix(1, 0, 0, 1, 0, 0);animation-play-state:paused" ></path>
<path d="M-300 299.5 L776.0290034764388 299.5 A15 15 0 0 1 776.0290034764388 330.5 L-300 330.5" fill="#fff" transform="matrix(1,0,0,1,23.7259521484375,0)" style="transform:matrix(1, 0, 0, 1, 23.726, 0);animation-play-state:paused" ></path>
<path d="M715.906866790658 299.5 L746.0290034764388 299.5 A15 15 0 0 1 746.0290034764388 330.5 L715.906866790658 330.5 A15 15 0 0 1 715.906866790658 299.5" fill="#fff" transform="matrix(1,0,0,1,1003.2584228515625,0)" opacity="0.357142" style="transform:matrix(1, 0, 0, 1, 1003.26, 0);opacity:0.357142;animation-play-state:paused" ></path>
<path d="M-300 329.5 L751.9025888783725 329.5 A15 15 0 0 0 751.9025888783725 360.5 L-300 360.5" fill="#fff" transform="matrix(1,0,0,1,-16.115720748901367,0)" style="transform:matrix(1, 0, 0, 1, -16.1157, 0);animation-play-state:paused" ></path>
<path d="M-52.674229365092714 329.5 L-30 329.5 A15 15 0 0 1 -30 360.5 L-52.674229365092714 360.5 A15 15 0 0 1 -52.674229365092714 329.5" fill="#000" transform="matrix(1,0,0,1,0,0)" opacity="1" style="transform:matrix(1, 0, 0, 1, 0, 0);animation-play-state:paused" ></path>
<path d="M-300 359.5 L778.7768546777612 359.5 A15 15 0 0 1 778.7768546777612 390.5 L-300 390.5" fill="#fff" transform="matrix(1,0,0,1,30.352163314819336,0)" style="transform:matrix(1, 0, 0, 1, 30.3522, 0);animation-play-state:paused" ></path>
<path d="M720.5323830999615 359.5 L748.7768546777612 359.5 A15 15 0 0 1 748.7768546777612 390.5 L720.5323830999615 390.5 A15 15 0 0 1 720.5323830999615 359.5" fill="#fff" transform="matrix(1,0,0,1,723.2905883789062,0)" opacity="0.714285" style="transform:matrix(1, 0, 0, 1, 723.291, 0);opacity:0.714285;animation-play-state:paused" ></path>
<path d="M-300 389.5 L733.0362923726085 389.5 A15 15 0 0 0 733.0362923726085 420.5 L-300 420.5" fill="#fff" transform="matrix(1,0,0,1,-4.98480224609375,0)" style="transform:matrix(1, 0, 0, 1, -4.9848, 0);animation-play-state:paused" ></path>
<path d="M-62.2917421759901 389.5 L-30 389.5 A15 15 0 0 1 -30 420.5 L-62.2917421759901 420.5 A15 15 0 0 1 -62.2917421759901 389.5" fill="#000" transform="matrix(1,0,0,1,0,0)" opacity="0.178571" style="transform:matrix(1, 0, 0, 1, 0, 0);opacity:0.178571;animation-play-state:paused" ></path>
<path d="M-300 419.5 L758.2922178896943 419.5 A15 15 0 0 1 758.2922178896943 450.5 L-300 450.5" fill="#fff" transform="matrix(1,0,0,1,17.8657169342041,0)" style="transform:matrix(1, 0, 0, 1, 17.8657, 0);animation-play-state:paused" ></path>
<path d="M697.7424290049624 419.5 L728.2922178896943 419.5 A15 15 0 0 1 728.2922178896943 450.5 L697.7424290049624 450.5 A15 15 0 0 1 697.7424290049624 419.5" fill="#fff" transform="matrix(1,0,0,1,795.015625,0)" opacity="0.714286" style="transform:matrix(1, 0, 0, 1, 795.016, 0);opacity:0.714286;animation-play-state:paused" ></path>
<path d="M-300 449.5 L716.5565512482484 449.5 A15 15 0 0 0 716.5565512482484 480.5 L-300 480.5" fill="#fff" transform="matrix(1,0,0,1,-5.256298065185547,0)" style="transform:matrix(1, 0, 0, 1, -5.2563, 0);animation-play-state:paused" ></path>
<path d="M-48.21004167058212 449.5 L-30 449.5 A15 15 0 0 1 -30 480.5 L-48.21004167058212 480.5 A15 15 0 0 1 -48.21004167058212 449.5" fill="#000" transform="matrix(1,0,0,1,0,0)" opacity="0.535714" style="transform:matrix(1, 0, 0, 1, 0, 0);opacity:0.535714;animation-play-state:paused" ></path>
<path d="M-300 479.5 L757.2869059448582 479.5 A15 15 0 0 1 757.2869059448582 510.5 L-300 510.5" fill="#fff" transform="matrix(1,0,0,1,0,0)" style="transform:matrix(1, 0, 0, 1, 0, 0);animation-play-state:paused" ></path>
<path d="M708.937055256174 479.5 L727.2869059448582 479.5 A15 15 0 0 1 727.2869059448582 510.5 L708.937055256174 510.5 A15 15 0 0 1 708.937055256174 479.5" fill="#fff" transform="matrix(1,0,0,1,0,0)" opacity="1" style="transform:matrix(1, 0, 0, 1, 0, 0);animation-play-state:paused" ></path>
<path d="M-300 509.5 L719.9404344113719 509.5 A15 15 0 0 0 719.9404344113719 540.5 L-300 540.5" fill="#fff" transform="matrix(1,0,0,1,-23.851688385009766,0)" style="transform:matrix(1, 0, 0, 1, -23.8517, 0);animation-play-state:paused" ></path>
<path d="M-56.49178502823473 509.5 L-30.000000000000004 509.5 A15 15 0 0 1 -30.000000000000004 540.5 L-56.49178502823473 540.5 A15 15 0 0 1 -56.49178502823473 509.5" fill="#000" transform="matrix(1,0,0,1,0,0)" opacity="1" style="transform:matrix(1, 0, 0, 1, 0, 0);animation-play-state:paused" ></path>
<path d="M-300 539.5 L754.1878067664693 539.5 A15 15 0 0 1 754.1878067664693 570.5 L-300 570.5" fill="#fff" transform="matrix(1,0,0,1,12.646116256713867,0)" style="transform:matrix(1, 0, 0, 1, 12.6461, 0);animation-play-state:paused" ></path>
<path d="M699.5850487533609 539.5 L724.1878067664693 539.5 A15 15 0 0 1 724.1878067664693 570.5 L699.5850487533609 570.5 A15 15 0 0 1 699.5850487533609 539.5" fill="#fff" transform="matrix(1,0,0,1,353.6956481933594,0)" opacity="1" style="transform:matrix(1, 0, 0, 1, 353.696, 0);animation-play-state:paused" ></path>
<path d="M-300 569.5 L738.8983703043332 569.5 A15 15 0 0 0 738.8983703043332 600.5 L-300 600.5" fill="#fff" transform="matrix(1,0,0,1,-17.2442626953125,0)" style="transform:matrix(1, 0, 0, 1, -17.2443, 0);animation-play-state:paused" ></path>
<path d="M-67.18827365088981 569.5 L-30 569.5 A15 15 0 0 1 -30 600.5 L-67.18827365088981 600.5 A15 15 0 0 1 -67.18827365088981 569.5" fill="#000" transform="matrix(1,0,0,1,0,0)" opacity="0.892857" style="transform:matrix(1, 0, 0, 1, 0, 0);opacity:0.892857;animation-play-state:paused" ></path>
<path d="M-300 599.5 L785.6392425875291 599.5 A15 15 0 0 1 785.6392425875291 630.5 L-300 630.5" fill="#fff" transform="matrix(1,0,0,1,35.47787094116211,0)" style="transform:matrix(1, 0, 0, 1, 35.4779, 0);animation-play-state:paused" ></path>
<path d="M740.7270483916194 599.5 L755.6392425875291 599.5 A15 15 0 0 1 755.6392425875291 630.5 L740.7270483916194 630.5 A15 15 0 0 1 740.7270483916194 599.5" fill="#fff" transform="matrix(1,0,0,1,776.3167724609375,0)" opacity="0.714285" style="transform:matrix(1, 0, 0, 1, 776.317, 0);opacity:0.714285;animation-play-state:paused" ></path>
<path d="M-300 629.5 L753.0203943705704 629.5 A15 15 0 0 0 753.0203943705704 660.5 L-300 660.5" fill="#fff" transform="matrix(1,0,0,1,-3.259227752685547,0)" style="transform:matrix(1, 0, 0, 1, -3.25923, 0);animation-play-state:paused" ></path>
<path d="M-50.23212213242378 629.5 L-30.000000000000004 629.5 A15 15 0 0 1 -30.000000000000004 660.5 L-50.23212213242378 660.5 A15 15 0 0 1 -50.23212213242378 629.5" fill="#000" transform="matrix(1,0,0,1,0,0)" opacity="0.17857" style="transform:matrix(1, 0, 0, 1, 0, 0);opacity:0.17857;animation-play-state:paused" ></path>
<path d="M-300 659.5 L791.3531219528259 659.5 A15 15 0 0 1 791.3531219528259 690.5 L-300 690.5" fill="#fff" transform="matrix(1,0,0,1,20.066776275634766,0)" style="transform:matrix(1, 0, 0, 1, 20.0668, 0);animation-play-state:paused" ></path>
<path d="M734.425381314266 659.5 L761.3531219528259 659.5 A15 15 0 0 1 761.3531219528259 690.5 L734.425381314266 690.5 A15 15 0 0 1 734.425381314266 659.5" fill="#fff" transform="matrix(1,0,0,1,411.48980712890625,0)" opacity="1" style="transform:matrix(1, 0, 0, 1, 411.49, 0);animation-play-state:paused" ></path>
<path d="M-300 689.5 L742.4306719793225 689.5 A15 15 0 0 0 742.4306719793225 720.5 L-300 720.5" fill="#fff" transform="matrix(1,0,0,1,-25.674846649169922,0)" style="transform:matrix(1, 0, 0, 1, -25.6748, 0);animation-play-state:paused" ></path>
<path d="M-46.348930593406266 689.5 L-30 689.5 A15 15 0 0 1 -30 720.5 L-46.348930593406266 720.5 A15 15 0 0 1 -46.348930593406266 689.5" fill="#000" transform="matrix(1,0,0,1,0,0)" opacity="0.535713" style="transform:matrix(1, 0, 0, 1, 0, 0);opacity:0.535713;animation-play-state:paused" ></path></g></mask></defs>


<rect x="0" y="0" width="1536" height="714" fill="url(#ldbk-photon-r0z3aq56omb-lg)" mask="url(#ldbk-photon-r0z3aq56omb-mask)" style="animation-play-state:paused" ></rect></g></svg>