<svg width="12" height="12" viewBox="0 0 12 12" fill="none" xmlns="http://www.w3.org/2000/svg">
<g clip-path="url(#clip0_174_2)">
<path d="M9.67681 10.2568C8.99031 10.9033 8.13901 11.373 7.20449 11.6207C6.26997 11.8685 5.28354 11.8861 4.33975 11.6717C3.39596 11.4574 2.52644 11.0183 1.81451 10.3966C1.10258 9.77496 0.572121 8.99148 0.273955 8.1213C-0.0242088 7.25113 -0.0800811 6.32339 0.111694 5.42705C0.30347 4.53069 0.736464 3.69574 1.36918 3.00224C2.00189 2.30871 2.81312 1.77987 3.72513 1.46639C4.63714 1.15291 5.61934 1.06529 6.57763 1.21193L6.36427 2.44871C5.6309 2.33649 4.87921 2.40355 4.18125 2.64345C3.48328 2.88336 2.86246 3.28809 2.37823 3.81884C1.89401 4.34958 1.56263 4.98856 1.41587 5.67456C1.2691 6.36053 1.31186 7.07053 1.54005 7.73647C1.76823 8.40243 2.17419 9.00202 2.71903 9.47781C3.26388 9.95357 3.92933 10.2896 4.65162 10.4536C5.37389 10.6177 6.12881 10.6042 6.84401 10.4146C7.5592 10.225 8.2107 9.86556 8.73607 9.37075L9.67681 10.2568Z" fill="#D07D1C"/>
<path d="M10.8864 4.39539C11.2926 5.29668 11.4278 6.28583 11.2772 7.25463C11.1267 8.22344 10.6961 9.13459 10.0327 9.88842L9.00842 9.08881C9.51616 8.5119 9.84565 7.81459 9.96088 7.07316C10.0761 6.33172 9.97263 5.57473 9.66176 4.88497L10.8864 4.39539Z" fill="#711AC8"/>
<path d="M3.60168 5.5352L5.63032 7.14151L10.8259 1.37677" stroke="#B8375D" stroke-linecap="round" stroke-linejoin="round"/>
</g>
<defs>
<clipPath id="clip0_174_2">
<rect width="11.9197" height="12" fill="white"/>
</clipPath>
</defs>
</svg>
